<svg xmlns="http://www.w3.org/2000/svg" width="14" height="13" viewBox="0 0 14 13">
    <g fill="none" fill-rule="evenodd">
        <g>
            <g>
                <path d="M0 0L16 0 16 16 0 16z" transform="translate(-39 -2814) translate(38 2812)"/>
                <path fill="#000" fill-rule="nonzero" d="M8 14.233l-.967-.88c-3.433-3.113-5.7-5.166-5.7-7.686C1.333 3.613 2.947 2 5 2c1.16 0 2.273.54 3 1.393C8.727 2.54 9.84 2 11 2c2.053 0 3.667 1.613 3.667 3.667 0 2.52-2.267 4.573-5.7 7.693L8 14.233z" transform="translate(-39 -2814) translate(38 2812)"/>
            </g>
        </g>
    </g>
</svg>
