<svg xmlns="http://www.w3.org/2000/svg" width="16" height="16" viewBox="0 0 16 16">
    <g fill="none" fill-rule="evenodd">
        <g>
            <g>
                <g>
                    <path d="M0 0L16 0 16 16 0 16z" transform="translate(-194 -2812) translate(30 2612) translate(164 200)"/>
                    <path fill="#EC5F49" fill-rule="nonzero" d="M8 14.233l-.967-.88c-3.433-3.113-5.7-5.166-5.7-7.686C1.333 3.613 2.947 2 5 2c1.16 0 2.273.54 3 1.393C8.727 2.54 9.84 2 11 2c2.053 0 3.667 1.613 3.667 3.667 0 2.52-2.267 4.573-5.7 7.693L8 14.233z" transform="translate(-194 -2812) translate(30 2612) translate(164 200)"/>
                </g>
            </g>
        </g>
    </g>
</svg>
